<svg id="eTMHN3RWzIu1" xmlns="http://www.w3.org/2000/svg" xmlns:xlink="http://www.w3.org/1999/xlink" viewBox="0 0 300 300" shape-rendering="geometricPrecision" text-rendering="geometricPrecision" width="300" height="300"><path d="M61.00909,195.35591c-8.1837-1.02296-17.225556-6.077381-24.890355-4.815004" transform="translate(-15.769656-.657069)" fill="none" stroke="#000" stroke-width="4.5"/><path d="M29.194671,178.489105c1.87001,5.61004,4.648687,9.698763,10.750507,8.681793" transform="translate(-18.401479 2.559603)" fill="none" stroke="#000" stroke-width="4.5"/><path d="M88.68985,147.80178c-30.31533,0-42.701072,14.478067-62.127002,33.903997" transform="translate(-15.769656-.657069)" fill="none" stroke="#000" stroke-width="4.5" stroke-linecap="round"/><path d="M88.68985,147.80178c53.34251,23.70778,102.98619-2.033375,156.14788-12.06597" transform="translate(-15.769656-.964399)" fill="none" stroke="#000" stroke-width="4.5"/><path d="M89.39961,147.80178c19.33811-3.22302,37.47796-11.25364,56.07129-16.32455c3.30629-.90172,38.443571-1.41953,48.333901-1.41953" transform="translate(-15.769656-.657069)" fill="none" stroke="#000" stroke-width="4.5"/><path d="M99.940125,199.408654c33.73041-14.45589,98.736186-9.232568,135.256626-9.232568" transform="translate(-14.901211-4.709813)" fill="none" stroke="#080808" stroke-width="4.5"/><ellipse rx="25.487167" ry="25.487167" transform="matrix(.224014 0 0 0.224014 178.937589 129.445414)" stroke-width="0"/><ellipse rx="25.487167" ry="25.487167" transform="matrix(.224014 0 0 0.224014 139.372331 169.806192)" stroke-width="0"/><ellipse rx="25.487167" ry="25.487167" transform="matrix(.224014 0 0 0.224014 277.279794 169.806192)" stroke-width="0"/><ellipse rx="25.487167" ry="25.487167" transform="matrix(.224014 0 0 0.224014 271.485951 134.374816)" stroke-width="0"/><ellipse rx="25.487167" ry="25.487167" transform="matrix(.224014 0 0 0.224014 220.29554 185.466273)" stroke-width="0"/><ellipse rx="25.487167" ry="25.487167" transform="matrix(.951048 0 0 0.951048 66.096212 188.336229)" stroke-width="0"/><line x1="-62.010464" y1="0" x2="62.010464" y2="0" transform="matrix(1.117576 0 0 1.117576 208.265392 169.397847)" fill="none" stroke="#0a0a0a" stroke-width="4"/><path d="M226.081435,135.961548c21.195234-4.25858,25.320232-1.214997,42.009532-1.214997" transform="translate(2.986639-1.190137)" fill="none" stroke="#0a0a0a" stroke-width="4.5"/><g transform="translate(-30.968493-22.724751)"><path d="" transform="translate(-5.800444 6.759205)" fill="none" stroke="#3f5787" stroke-width="4.5"/></g><g transform="translate(.000001 0.000001)"><path d="M66.54006,175.99466c-11.198962-1.539448-22.009953,6.885725-17.935008,20.15372" transform="translate(2.167119-3.181464)" fill="none" stroke="#fff" stroke-width="4.5" stroke-linecap="round"/><ellipse rx="3.308322" ry="3.308322" transform="translate(178.937589 129.400631)" fill="#fff" stroke-width="0" stroke-linecap="round"/><ellipse rx="3.308322" ry="3.308322" transform="translate(271.485951 134.374633)" fill="#fff" stroke-width="0"/><ellipse rx="3.308322" ry="3.308322" transform="translate(277.279794 169.806192)" fill="#fff" stroke-width="0"/><ellipse rx="3.308322" ry="3.308322" transform="translate(220.29554 185.466273)" fill="#fff" stroke-width="0"/><ellipse rx="3.308322" ry="3.308322" transform="translate(139.372331 169.806192)" fill="#fff" stroke-width="0"/></g><path d="" transform="translate(39.761476-40.452354)" fill="none" stroke="#fff" stroke-width="1.5" stroke-linecap="round"/></svg>
